<svg width="516" height="131" viewBox="0 0 516 131" fill="none" xmlns="http://www.w3.org/2000/svg">
<g clip-path="url(#clip0_337_283)">
<path fill-rule="evenodd" clip-rule="evenodd" d="M137.138 40.0092C137.116 39.952 137.071 39.9139 137.047 39.859C136.53 37.8607 135.927 35.9149 135.183 34.0596L128.477 39.5586C129.443 41.3065 130.339 43.0854 131.164 44.8882L134.264 53.7756C134.033 55.4353 133.599 56.9948 132.91 58.4232C130.187 64.0795 124.674 66.0515 124.495 66.1183L82.0034 83.3447C81.9414 81.7375 81.722 80.0086 81.2952 78.1296C81.2475 77.9102 81.2165 77.6908 81.2022 77.4738L129.55 57.3763C129.827 57.2595 130.07 57.095 130.337 56.9638L126.743 46.6647C125.799 44.5996 124.767 42.5322 123.605 40.4957C123.601 40.4909 123.593 40.4886 123.589 40.4838C123.546 40.4313 123.536 40.3693 123.498 40.3145C121.428 36.7137 118.922 33.2155 115.638 30.0249C115.552 29.982 115.462 29.9581 115.381 29.9033C115.078 29.7006 114.851 29.4311 114.675 29.1378C111.313 26.0712 107.185 23.317 101.967 21.0635C101.746 21.0397 101.521 21.0206 101.304 20.9276C101.104 20.8442 100.951 20.7059 100.787 20.5771C96.5376 18.8554 91.6158 17.4437 85.8283 16.4612C85.7401 16.4708 85.659 16.4994 85.5708 16.4994C85.2846 16.4994 84.9961 16.4493 84.7123 16.3396C84.6766 16.3277 84.6527 16.2967 84.6169 16.28C75.9489 14.9184 65.4399 14.4629 52.5917 15.2165C52.5487 15.2189 52.5106 15.2427 52.4677 15.2427C52.4414 15.2427 52.42 15.2284 52.3937 15.226C42.19 15.8341 30.5388 17.1886 17.1516 19.4587L14.1518 19.8092L10.7943 62.6964C6.45429 65.4649 -2.70737 72.9669 0.771773 85.2619C1.99746 89.5972 4.0053 92.1463 6.73568 92.8307C7.23644 92.9571 8.04721 93.3696 7.92798 94.1303C7.00514 99.9678 5.44322 110.737 5.32637 117.29C5.26914 120.294 6.16098 122.753 7.97329 124.601C10.8229 127.503 15.1128 127.934 17.4187 127.934C18.2319 127.934 18.7684 127.88 18.7684 127.88C19.6626 127.82 27.0525 127.164 29.4991 122.047C30.9943 118.918 30.2074 115.103 27.1813 110.718L66.2793 94.8647C66.2865 94.8695 66.296 94.8719 66.3032 94.8743C66.7682 95.1223 67.2665 95.3131 67.7816 95.4704C67.8651 95.4967 67.939 95.5372 68.0225 95.5611C68.6186 95.7256 69.2434 95.8353 69.8991 95.8806C70.2139 95.9021 70.5454 95.914 70.884 95.914C70.9794 95.914 71.0628 95.8901 71.1558 95.8877C71.8831 95.871 72.6128 95.8186 73.3401 95.6827C73.6239 95.6302 73.8814 95.5396 74.1533 95.4704C74.5634 95.3655 74.9664 95.2487 75.3623 95.0984C75.6985 94.9721 76.0228 94.8337 76.3376 94.6787C76.65 94.5238 76.9433 94.3401 77.239 94.1565C77.537 93.9681 77.8447 93.7988 78.1165 93.5818C78.5982 93.2003 79.0465 92.7663 79.4614 92.2775C79.5115 92.2178 79.5783 92.1749 79.626 92.1153C80.3867 91.1614 80.947 90.0478 81.3476 88.8055C81.3548 88.784 81.3667 88.7673 81.3739 88.7458L126.152 70.5871C126.452 70.4869 133.537 68.0236 137.169 60.5741C139.945 54.882 139.935 47.9619 137.138 40.0092ZM24.4724 103.022C24.9493 101.444 26.6853 100.063 29.6804 98.8995L61.2859 85.7579C61.4099 87.4415 61.7867 89.3992 62.7048 91.1686L24.8444 106.518C24.3317 105.15 24.1838 103.972 24.4724 103.022ZM59.1446 70.9495C59.1136 69.5831 59.5905 68.2811 60.4871 67.2796C61.4243 66.2399 62.6976 65.6462 64.0736 65.6175C64.188 65.6152 64.3478 65.4339 64.3406 65.1549C64.2786 62.2767 66.4892 59.8873 69.2696 59.8253C69.3841 59.8229 69.5438 59.6417 69.5367 59.3651C69.5081 58.0488 70.5549 56.9566 71.8712 56.928C73.2519 56.9972 74.2797 57.9463 74.3059 59.2626C74.3679 62.1408 72.155 64.5302 69.3745 64.5945C69.2625 64.5969 69.1027 64.7758 69.1098 65.0524C69.1718 67.9306 66.9589 70.3224 64.1785 70.3868C64.002 70.3891 63.909 70.6658 63.9114 70.8422C63.9424 72.1609 62.8979 73.2507 61.5816 73.2817H61.5268C60.2343 73.2817 59.1732 72.2468 59.1446 70.9495ZM99.3657 32.5907C101.271 32.5907 103.861 32.5907 106.095 33.6662C108.103 34.6296 110.492 36.8067 110.492 41.6856C110.492 49.7122 102.292 56.2389 92.2119 56.2389C83.6798 56.2389 76.3137 56.2389 76.3137 46.4572C76.3137 37.4172 95.6124 32.5907 99.3657 32.5907ZM61.4696 18.5025C63.1149 18.1567 64.8056 18.4524 66.2149 19.3275C67.6648 20.2242 68.6496 21.6263 68.9906 23.2717C69.148 24.0395 69.9898 24.5236 70.8721 24.3352C72.5198 23.9918 74.2057 24.2851 75.6151 25.1627C77.0649 26.0593 78.0497 27.4614 78.3907 29.1044C78.4861 29.5766 78.8176 29.8437 79.006 29.9605C79.3732 30.1847 79.8167 30.2634 80.2698 30.1656C81.5623 29.908 82.8213 30.7307 83.0884 32.0184C83.3555 33.3085 82.5256 34.57 81.238 34.837C80.7873 34.9324 80.3342 34.9753 79.8859 34.9753C78.6888 34.9753 77.5156 34.6463 76.4926 34.012C75.0427 33.113 74.0579 31.7132 73.7193 30.0678C73.6215 29.598 73.2901 29.331 73.1017 29.2141C72.7344 28.9852 72.2885 28.9065 71.8378 29.0067C68.3754 29.7054 65.0059 27.5735 64.3192 24.2351C64.2214 23.7653 63.8899 23.4982 63.7016 23.3814C63.3367 23.1525 62.8836 23.0714 62.4377 23.1739C61.1357 23.4362 59.8838 22.6088 59.6191 21.3211C59.352 20.0334 60.1795 18.7696 61.4696 18.5025ZM63.0315 44.8643C63.4702 45.0527 63.8804 44.943 64.0855 44.8571C64.4813 44.6878 64.8009 44.3659 64.9869 43.9462C65.5186 42.7372 66.9232 42.1888 68.1298 42.7229C69.3364 43.2523 69.8825 44.6616 69.3531 45.8635C68.6735 47.4087 67.4597 48.6129 65.9312 49.252C64.3573 49.9149 62.6452 49.903 61.1095 49.2281C60.6707 49.035 60.2606 49.1471 60.0555 49.2353C59.6573 49.4022 59.3377 49.7265 59.1517 50.1438C57.7305 53.375 54.032 54.8868 50.9081 53.5061C50.467 53.3154 50.0592 53.425 49.8518 53.5133C49.4559 53.6802 49.134 54.0045 48.9504 54.4218C48.5569 55.316 47.6818 55.8478 46.7661 55.8478C46.4465 55.8478 46.1198 55.7834 45.8075 55.6451C44.6009 55.1157 44.0548 53.7088 44.5842 52.5046C45.2614 50.9594 46.4799 49.7551 48.0084 49.1161C49.5799 48.4531 51.2944 48.4651 52.8277 49.1399C53.5431 49.4547 54.423 49.0445 54.7879 48.2242C55.4651 46.6814 56.6813 45.4771 58.2098 44.8381C59.7813 44.1775 61.491 44.1871 63.0315 44.8643ZM46.1771 20.7679C49.5346 20.7679 57.306 20.7679 57.306 29.8627C57.306 37.8869 49.1054 44.416 39.0233 44.416C30.4935 44.416 23.1251 44.416 23.1251 34.6296C23.1251 25.5943 42.4261 20.7679 46.1771 20.7679ZM17.5976 73.3222C17.5976 64.2845 36.8962 59.4605 40.6472 59.4605C44.0023 59.4605 51.7761 59.4605 51.7761 68.553C51.7761 76.5772 43.5755 83.1086 33.4934 83.1086C24.9636 83.1086 17.5976 83.1086 17.5976 73.3222Z" fill="#D98740"/>
<path fill-rule="evenodd" clip-rule="evenodd" d="M87.047 49.4997C88.3633 49.4997 89.4316 48.4314 89.4316 47.1151C89.4316 45.7988 88.3633 44.7305 87.047 44.7305C85.7283 44.7305 84.6624 45.7988 84.6624 47.1151C84.6624 48.4314 85.7283 49.4997 87.047 49.4997Z" fill="#D98740"/>
<path fill-rule="evenodd" clip-rule="evenodd" d="M99.4896 43.1852C100.808 43.1852 101.874 42.1169 101.874 40.8006C101.874 39.4843 100.808 38.416 99.4896 38.416C98.1733 38.416 97.105 39.4843 97.105 40.8006C97.105 42.1169 98.1733 43.1852 99.4896 43.1852Z" fill="#D98740"/>
<path fill-rule="evenodd" clip-rule="evenodd" d="M96.3612 49.1852C97.6775 49.1852 98.7458 48.1169 98.7458 46.7982C98.7458 45.4819 97.6775 44.416 96.3612 44.416C95.0449 44.416 93.9766 45.4819 93.9766 46.7982C93.9766 48.1169 95.0449 49.1852 96.3612 49.1852Z" fill="#D98740"/>
<path fill-rule="evenodd" clip-rule="evenodd" d="M33.9942 38.1325C35.3105 38.1325 36.3788 37.0666 36.3788 35.7479C36.3788 34.4316 35.3105 33.3633 33.9942 33.3633C32.6755 33.3633 31.6096 34.4316 31.6096 35.7479C31.6096 37.0666 32.6755 38.1325 33.9942 38.1325Z" fill="#D98740"/>
<path fill-rule="evenodd" clip-rule="evenodd" d="M47.9012 34.9753C49.2175 34.9753 50.2858 33.9093 50.2858 32.5907C50.2858 31.2744 49.2175 30.2061 47.9012 30.2061C46.5825 30.2061 45.5166 31.2744 45.5166 32.5907C45.5166 33.9093 46.5825 34.9753 47.9012 34.9753Z" fill="#D98740"/>
<path fill-rule="evenodd" clip-rule="evenodd" d="M40.2157 32.5905C41.532 32.5905 42.6003 31.5246 42.6003 30.2059C42.6003 28.8896 41.532 27.8213 40.2157 27.8213C38.8994 27.8213 37.8311 28.8896 37.8311 30.2059C37.8311 31.5246 38.8994 32.5905 40.2157 32.5905Z" fill="#D98740"/>
<path fill-rule="evenodd" clip-rule="evenodd" d="M28.6287 71.6689C27.3101 71.6689 26.2441 72.7372 26.2441 74.0536C26.2441 75.3699 27.3101 76.4382 28.6287 76.4382C29.9451 76.4382 31.0134 75.3699 31.0134 74.0536C31.0134 72.7372 29.9451 71.6689 28.6287 71.6689Z" fill="#D98740"/>
<path fill-rule="evenodd" clip-rule="evenodd" d="M36.3787 70.8971C37.6951 70.8971 38.7634 69.8288 38.7634 68.5125C38.7634 67.1962 37.6951 66.1279 36.3787 66.1279C35.0624 66.1279 33.9941 67.1962 33.9941 68.5125C33.9941 69.8288 35.0624 70.8971 36.3787 70.8971Z" fill="#D98740"/>
<path fill-rule="evenodd" clip-rule="evenodd" d="M37.8311 73.2811C37.8311 74.5974 38.8994 75.6657 40.2157 75.6657C41.532 75.6657 42.6003 74.5974 42.6003 73.2811C42.6003 71.9648 41.532 70.8965 40.2157 70.8965C38.8994 70.8965 37.8311 71.9648 37.8311 73.2811Z" fill="#D98740"/>
<path fill-rule="evenodd" clip-rule="evenodd" d="M31.0061 12.5433V3.78223C29.1342 4.03976 27.3433 4.2973 25.748 4.54769C20.18 5.42522 15.8782 9.58636 14.6882 14.947L16.4767 14.7395C21.5487 13.8787 26.3847 13.1513 31.0061 12.5433Z" fill="#D98740"/>
<path fill-rule="evenodd" clip-rule="evenodd" d="M121.614 16.277C117.949 13.4346 113.728 10.9808 108.923 8.94434L105.287 17.6028C109.493 19.5725 113.096 21.8594 116.182 24.4061L121.614 16.277Z" fill="#D98740"/>
<path fill-rule="evenodd" clip-rule="evenodd" d="M50.083 1.85742C44.9537 2.18411 40.1297 2.6515 35.7754 3.17134V11.9634C40.8045 11.3768 45.5809 10.9285 50.083 10.6352V1.85742Z" fill="#D98740"/>
<path fill-rule="evenodd" clip-rule="evenodd" d="M87.2709 3.06653C82.3539 2.31061 77.1268 1.79076 71.5444 1.55469V10.3515C76.0323 10.5661 80.1696 10.9715 84.0064 11.5414L87.2709 3.06653Z" fill="#D98740"/>
<path fill-rule="evenodd" clip-rule="evenodd" d="M104.48 7.20393C100.653 5.86855 96.504 4.77164 92.0615 3.89648L88.7993 12.3666C93.2705 13.2561 97.2909 14.3888 100.896 15.7432L104.48 7.20393Z" fill="#D98740"/>
<path fill-rule="evenodd" clip-rule="evenodd" d="M66.7753 10.1942V1.45458C65.7833 1.44027 64.8271 1.39258 63.816 1.39258C60.7757 1.39258 57.7877 1.47842 54.8523 1.60481V10.3802C59.0516 10.1942 63.0315 10.1298 66.7753 10.1942Z" fill="#D98740"/>
<path fill-rule="evenodd" clip-rule="evenodd" d="M125.985 35.4329L133.091 29.6049C131.04 25.8372 128.417 22.4415 125.255 19.4131L119.737 27.671C122.139 30.1057 124.192 32.7097 125.985 35.4329Z" fill="#D98740"/>
<path d="M221.971 63.5734V89.7806C221.971 95.4055 222.994 99.6243 225.039 102.437C221.801 105.334 217.923 106.783 213.406 106.783C208.974 106.783 205.949 105.761 204.329 103.715C202.71 101.67 201.9 98.5589 201.9 94.3828V67.1529C201.9 64.2552 201.517 62.1245 200.75 60.7609C199.983 59.3973 198.491 58.7155 196.275 58.7155C194.997 58.7155 193.548 59.0564 191.929 59.7382C190.309 60.42 188.648 61.528 186.943 63.062V105.761C185.494 106.016 183.917 106.208 182.213 106.336C180.508 106.464 178.761 106.528 176.972 106.528C175.182 106.528 173.435 106.464 171.73 106.336C170.026 106.208 168.449 106.016 167 105.761V41.9685L167.895 41.0736H175.437C180.636 41.0736 184.131 43.6304 185.92 48.744C191.886 43.4599 197.809 40.8179 203.69 40.8179C209.656 40.8179 214.194 42.8846 217.305 47.0181C220.416 51.1516 221.971 56.67 221.971 63.5734ZM291.133 96.5561C290.706 98.3459 289.897 100.263 288.704 102.309C287.51 104.354 286.275 105.846 284.996 106.783C279.03 106.613 274.428 104.354 271.19 100.008C265.65 105.121 259.641 107.678 253.164 107.678C249.84 107.678 246.943 107.146 244.471 106.08C241.999 105.015 239.911 103.587 238.207 101.798C236.502 100.008 235.224 97.941 234.372 95.5973C233.519 93.2536 233.093 90.8033 233.093 88.2465C233.093 84.5818 233.754 81.3645 235.075 78.5946C236.396 75.8247 238.207 73.5236 240.508 71.6912C242.809 69.8589 245.494 68.4739 248.562 67.5364C251.63 66.5989 254.911 66.1302 258.406 66.1302C260.366 66.1302 262.092 66.1515 263.583 66.1941C265.075 66.2367 266.374 66.3007 267.482 66.3859V63.9569C267.482 58.5876 264.712 55.903 259.173 55.903C255.593 55.903 249.329 57.2666 240.38 59.9939C237.823 57.011 236.204 52.3661 235.522 46.0593C237.568 45.2923 239.847 44.5679 242.362 43.8861C244.876 43.2042 247.454 42.6077 250.096 42.0963C252.738 41.5849 255.337 41.1801 257.894 40.8818C260.451 40.5835 262.752 40.4344 264.798 40.4344C267.78 40.4344 270.657 40.8605 273.427 41.7128C276.197 42.565 278.626 43.8647 280.714 45.6119C282.802 47.359 284.464 49.6175 285.699 52.3874C286.935 55.1573 287.553 58.4598 287.553 62.295V88.2465C287.553 92.1669 288.746 94.9368 291.133 96.5561ZM252.525 86.9681C252.525 90.9738 254.826 92.9766 259.428 92.9766C261.815 92.9766 264.499 91.7408 267.482 89.2692V79.042C265.778 78.9568 264.35 78.8929 263.2 78.8503C262.049 78.8077 261.175 78.7864 260.579 78.7864C255.21 78.7864 252.525 81.5136 252.525 86.9681ZM333.831 107.039C329.911 107.039 325.99 106.144 322.07 104.354V121.357C322.07 125.789 321.26 128.9 319.641 130.689C318.022 132.479 315.166 133.374 311.076 133.374H303.405L302.51 132.479V41.9685L303.405 41.0736H308.647C313.505 41.0736 317.127 43.1616 319.513 47.3377C324.371 42.4798 330.294 40.0509 337.283 40.0509C340.862 40.0509 344.016 40.8392 346.743 42.4159C349.47 43.9926 351.793 46.2298 353.71 49.1275C355.628 52.0252 357.077 55.5195 358.057 59.6104C359.037 63.7012 359.527 68.3035 359.527 73.4171C359.527 78.5307 358.866 83.1755 357.545 87.3516C356.224 91.5277 354.413 95.0646 352.112 97.9623C349.811 100.86 347.105 103.097 343.994 104.674C340.884 106.251 337.496 107.039 333.831 107.039ZM331.402 56.0308C327.823 56.0308 324.712 57.7354 322.07 61.1444V89.2692C325.308 91.2294 328.078 92.2095 330.379 92.2095C336.175 92.2095 339.073 85.7749 339.073 72.9057C339.073 61.6558 336.516 56.0308 331.402 56.0308ZM417.311 47.5934C423.447 53.7297 426.515 62.5081 426.515 73.9284C426.515 79.042 425.855 83.6869 424.534 87.863C423.212 92.0391 421.295 95.5973 418.781 98.5376C416.267 101.478 413.177 103.736 409.512 105.313C405.848 106.89 401.629 107.678 396.856 107.678C392.083 107.678 387.886 106.869 384.264 105.249C380.642 103.63 377.574 101.35 375.059 98.4098C372.545 95.4695 370.649 91.9112 369.371 87.7351C368.092 83.559 367.453 78.9568 367.453 73.9284C367.453 68.8148 368.092 64.1913 369.371 60.0578C370.649 55.9243 372.524 52.3661 374.996 49.3832C377.467 46.4002 380.535 44.0991 384.2 42.4798C387.865 40.8605 392.083 40.0509 396.856 40.0509C405.294 40.0509 412.112 42.565 417.311 47.5934ZM396.984 55.0081C395.109 55.0081 393.596 55.4556 392.446 56.3504C391.295 57.2453 390.379 58.4598 389.697 59.9939C389.015 61.528 388.547 63.2964 388.291 65.2992C388.035 67.3021 387.907 69.454 387.907 71.7552C387.907 75.3347 388.014 78.4241 388.227 81.0235C388.44 83.623 388.866 85.7962 389.505 87.5434C390.145 89.2905 391.039 90.5902 392.19 91.4425C393.341 92.2948 394.853 92.7209 396.728 92.7209C400.478 92.7209 402.95 91.0803 404.143 87.7991C405.336 84.5178 405.933 79.8517 405.933 73.8006C405.933 67.6643 405.336 62.9981 404.143 59.8021C402.95 56.6061 400.564 55.0081 396.984 55.0081ZM436.359 6.30112C438.915 4.76704 441.856 4 445.18 4C448.504 4 451.444 4.76704 454.001 6.30112C454.512 8.60224 454.768 10.6477 454.768 12.4374C454.768 14.2272 454.469 16.6135 453.873 19.5965C451.913 30.1646 450.634 37.9202 450.038 42.8633C448.93 43.5451 447.31 43.8861 445.18 43.8861C443.049 43.8861 441.43 43.5451 440.322 42.8633C439.896 39.1986 438.979 33.6589 437.573 26.2441C436.167 18.8294 435.464 14.3337 435.464 12.757C435.464 11.1803 435.762 9.02837 436.359 6.30112ZM463.844 101.414C463.93 99.1981 464.505 96.7692 465.57 94.1271C466.635 91.4851 467.893 89.3971 469.341 87.863C476.16 91.4425 482.083 93.2323 487.111 93.2323C489.497 93.2323 491.33 92.8274 492.608 92.0178C493.887 91.2081 494.526 90.1215 494.526 88.7579C494.526 86.2011 492.566 84.2835 488.645 83.0051L481.614 80.3204C470.961 76.4 465.634 70.008 465.634 61.1444C465.634 54.6672 467.871 49.5323 472.346 45.7397C476.82 41.9471 482.85 40.0509 490.435 40.0509C494.185 40.0509 498.318 40.5835 502.835 41.6489C507.352 42.7142 511.06 43.9713 513.958 45.4201C514.128 47.8065 513.659 50.4272 512.551 53.2823C511.443 56.1374 510.08 58.1615 508.46 59.3547C501.301 56.1161 495.336 54.4968 490.563 54.4968C488.858 54.4968 487.559 54.8803 486.664 55.6473C485.769 56.4144 485.321 57.3945 485.321 58.5876C485.321 60.6331 486.941 62.2524 490.179 63.4456L498.105 66.258C509.441 70.2637 515.108 77.1244 515.108 86.8403C515.108 93.2323 512.764 98.3032 508.077 102.053C503.389 105.803 496.699 107.678 488.006 107.678C479.313 107.678 471.259 105.59 463.844 101.414Z" fill="#D98740"/>
</g>
<defs>
<clipPath id="clip0_337_283">
<rect width="515.2" height="130.319" fill="white"/>
</clipPath>
</defs>
</svg>
